<svg width="90" height="91" viewBox="0 0 90 91" fill="none" xmlns="http://www.w3.org/2000/svg">
<path id="Subtract" fill-rule="evenodd" clip-rule="evenodd" d="M36.6844 0.786859C41.6756 8.3871 48.6208 14.1443 56.9234 15.345C63.3776 16.2784 70.9347 14.4967 79.3705 8.22553L82.4858 11.3408C76.1045 19.8499 74.2904 27.4693 75.2305 33.9698C76.4312 42.2724 82.1884 49.2177 89.7886 54.2088L88.0705 56.8251C80.0331 51.5469 73.5068 43.9197 72.1327 34.4178C71.4134 29.4438 72.1231 24.0822 74.6355 18.418L2.95394 90.0996L0.740687 87.8863L72.8605 15.7665C67.0541 18.4195 61.5621 19.1784 56.4754 18.4428C46.9735 17.0687 39.3463 10.5424 34.0681 2.50502L36.6844 0.786859Z" fill="#06251C"/>
</svg>
